<svg xmlns="http://www.w3.org/2000/svg" viewBox="0 0 720 210"><defs><linearGradient id="g" x1="0" y1="1" x2="1" y2="0"><stop offset="0" stop-color="#078F63"/><stop offset=".55" stop-color="#18B889"/><stop offset="1" stop-color="#7BEA67"/></linearGradient></defs><path d="M24 142C24 74 41 30 84 30C109 30 126 47 145 74L166 100L189 69C209 43 227 30 251 30C294 30 309 68 309 110V144C309 173 289 192 266 192C242 192 225 173 225 144V93L193 129C179 146 154 147 137 131L83 79V144C83 173 69 192 47 192C24 192 24 171 24 142Z" fill="url(#g)"/><rect x="236" y="122" width="44" height="44" rx="11" fill="#fff"/><path d="M258 131V157M245 144H271" stroke="#087A5E" stroke-width="9" stroke-linecap="round"/><text x="345" y="125" font-family="Arial,sans-serif" font-size="76" font-weight="900" fill="#101214">Medi<tspan fill="#087A5E">Crew</tspan></text><text x="349" y="157" font-family="Arial,sans-serif" font-size="13" font-weight="700" letter-spacing="5" fill="#69716F">CARE MOVES FORWARD</text></svg>